<!--?xml version="1.0" encoding="utf-8"?-->
<!-- Generator: Adobe Illustrator 22.1.0, SVG Export Plug-In . SVG Version: 6.00 Build 0)  -->
<svg version="1.1" id="_x34_" xmlns="http://www.w3.org/2000/svg" xmlns:xlink="http://www.w3.org/1999/xlink" x="0px" y="0px" viewBox="0 0 613.42 800" style="width: 384px;" xml:space="preserve">
<style type="text/css">
	.st0{fill:#040000;}
</style>
<g>
	<path class="st0" d="M547.511,70.287H377.504C374.765,32.772,344.922,2.14,306.703,2c-38.236,0.14-68.077,30.772-70.819,68.287
		H65.91c-35.433,0-64.376,28.967-64.376,64.376v29.471h610.353v-29.471C611.887,99.254,582.912,70.287,547.511,70.287z
		 M55.751,733.795C58.198,769.104,89.154,798,124.587,798h364.232c35.386,0,66.39-28.896,68.851-64.205l36.888-530.56H18.831
		L55.751,733.795z M417.707,284.211c0-17.515,14.201-31.715,31.715-31.715c17.515,0,31.716,14.201,31.716,31.715v367.895
		c0,17.531-14.201,31.716-31.716,31.716c-17.515,0-31.715-14.185-31.715-31.716V284.211z M274.988,284.211
		c0-17.515,14.201-31.715,31.715-31.715c17.515,0,31.716,14.201,31.716,31.715v367.895c0,17.531-14.201,31.716-31.716,31.716
		c-17.515,0-31.715-14.185-31.715-31.716V284.211z M132.268,284.211c0-17.515,14.201-31.715,31.715-31.715
		c17.515,0,31.716,14.201,31.716,31.715v367.895c0,17.531-14.201,31.716-31.716,31.716c-17.515,0-31.715-14.185-31.715-31.716
		V284.211z" style="fill: rgb(173, 173, 173);"></path>
</g>
</svg>
