<!--?xml version="1.0" encoding="utf-8"?-->
<!-- Generator: Adobe Illustrator 22.1.0, SVG Export Plug-In . SVG Version: 6.00 Build 0)  -->
<svg version="1.1" id="_x31__1_" xmlns="http://www.w3.org/2000/svg" xmlns:xlink="http://www.w3.org/1999/xlink" x="0px" y="0px" viewBox="0 0 394.351 800" style="width: 247px;" xml:space="preserve">
<style type="text/css">
	.st0{fill:#040000;}
</style>
<g>
	<path class="st0" d="M200.707,795.428c1.914-1.135,3.641-2.645,5.087-4.512l15.432-19.971l21.82-28.236
		c2.461-3.185,3.807-7.112,3.807-11.139v-23.954l25.381-25.39c8.714-8.704,8.714-22.827,0-31.54l-21.838-21.839
		c-2.27-2.269-3.543-5.345-3.543-8.557v-1.666c0-6.691,5.418-12.118,12.109-12.118h3.388c5.729,0,10.378-4.65,10.378-10.379v-35.098
		c0-5.738-4.65-10.388-10.378-10.388h-3.388c-6.691,0-12.109-5.418-12.109-12.11v-4.383c0-10.791,4.284-11.283,11.908-18.917
		l25.49-25.48c9.775-9.784,9.775-25.646,0-35.421l-26.523-26.524c-6.965-6.965-10.875-16.411-10.875-26.259
		c0-7.835,5.034-14.745,12.465-17.225c78.328-26.131,134.673-100.322,134.041-187.574C392.582,88.639,305.283,2,197.174,2
		C88.824,2,0.986,89.838,0.986,198.187c0,78.813,46.478,146.771,113.512,177.955c0.01,0,0.01,0.009,0.018,0.009
		c2.583,1.208,5.199,2.361,7.846,3.45c6.79,2.801,11.228,9.418,11.228,16.758v353.745c0,5.739,2.7,11.139,7.286,14.58l18.158,13.619
		l21.408,16.054C186.529,798.915,194.548,799.107,200.707,795.428z M197.174,154.254c-23.678,0-42.882-19.193-42.882-42.88
		c0-23.687,19.204-42.889,42.882-42.889c23.686,0,42.887,19.202,42.887,42.889C240.062,135.061,220.86,154.254,197.174,154.254z" style="fill: rgb(250, 226, 45);"></path>
</g>
</svg>
