<!--?xml version="1.0" encoding="utf-8"?-->
<!-- Generator: Adobe Illustrator 22.1.0, SVG Export Plug-In . SVG Version: 6.00 Build 0)  -->
<svg version="1.1" id="_x35_" xmlns="http://www.w3.org/2000/svg" xmlns:xlink="http://www.w3.org/1999/xlink" x="0px" y="0px" viewBox="0 0 615.175 800" style="enable-background:new 0 0 615.175 800;" xml:space="preserve">
<style type="text/css">
	.st0{fill:#040000;}
</style>
<g>
	<path class="st0" d="M561.426,546.109V255.851C561.4,115.634,447.782,2.034,307.593,2l0,0
		C167.374,2.034,53.776,115.634,53.74,255.851l0,0v144.56h77.411v-144.56c0.018-48.858,19.685-92.707,51.677-124.754l0,0
		c32.046-32.012,75.914-51.66,124.765-51.695l0,0c48.831,0.035,92.689,19.682,124.753,51.695l0,0
		c31.977,32.046,51.659,75.896,51.668,124.754l0,0v290.258H561.426L561.426,546.109z" style="fill: rgb(242, 222, 0);"></path>
	<path class="st0" d="M608.691,320.05H6.484c-2.74,0-4.946,2.329-4.946,5.182v467.567c0,2.871,2.205,5.201,4.946,5.201h602.207
		c2.731,0,4.946-2.33,4.946-5.201V325.232C613.637,322.379,611.422,320.05,608.691,320.05z M330.953,564.129L344.28,675.33h-73.411
		l13.353-111.201c-23.378-9.282-39.917-32.081-39.917-58.769c0-34.953,28.324-63.288,63.288-63.288
		c34.944,0,63.27,28.334,63.27,63.288C370.863,532.048,354.322,554.847,330.953,564.129z" style="fill: rgb(242, 222, 0);"></path>
</g>
</svg>
