<!--?xml version="1.0" encoding="utf-8"?-->
<!-- Generator: Adobe Illustrator 22.1.0, SVG Export Plug-In . SVG Version: 6.00 Build 0)  -->
<svg version="1.1" id="_x36_" xmlns="http://www.w3.org/2000/svg" xmlns:xlink="http://www.w3.org/1999/xlink" x="0px" y="0px" viewBox="0 0 800 683.312" style="enable-background:new 0 0 800 683.312;" xml:space="preserve">
<style type="text/css">
	.st0{fill:#FFFFFF;}
	.st1{fill:#989898;}
</style>
<g>
	<path class="st0" d="M754.927,265.347c0.162-3.121-0.464-6.017-2.246-8.306c-1.783-2.3-4.44-3.634-7.529-4.234
		c0.432-3.553-0.216-6.832-2.203-9.386c-1.501-1.944-3.64-3.214-6.125-3.932c-0.539-0.713-1.124-1.313-1.695-1.955
		c4.741-5.292,6.718-11.399,4.558-16.444c-3.467-8.052-16.061-10.364-28.558-5.508c-0.247-0.378-0.464-0.756-0.712-1.135
		c0.238-0.431,0.529-0.864,0.724-1.311c0.453-0.086,0.864-0.222,1.394-0.275c2.322-0.545,3.424,1.199,4.752-1.021
		c1.383-2.323,2.517-4.914,3.392-7.713c2.905-9.311,1.89-18.361-1.912-23.827c0.033-0.356,0.162-0.701,0.162-1.08
		c-0.011-1.264-0.195-4.018-4.223-4.542c-6.665-1.101-8.642-2.435-10.315-6.323c-1.006-1.697-0.401-3.041-1.534-3.808
		c-1.772-12.411-9.279-21.673-17.531-20.976c-1.112,0.103-2.192,0.389-3.23,0.827c0.033-0.913,0.195-1.857,0.53-2.949
		c0.378-2.332,2.398-2.673,0.875-4.741c-1.589-2.132-3.522-4.153-5.746-6.032c-9.301-7.809-20.631-9.91-26.97-5.52
		c-2.215-5.504-5.53-9.835-9.333-12.286c1.394-7.21-0.184-13.675-4.828-16.834c-3.792-2.576-8.9-2.408-14.009-0.097
		c0.011-1.448-0.454-3.414-3.704-4.332c-0.217-0.07-0.367-0.124-0.584-0.189c-0.605-0.945-1.707-1.793-3.91-1.858
		c-0.281-0.021-0.453-0.054-0.723-0.075c-2.549-1.426-3.63-3.1-4.365-5.892c-0.961-2.294,0.638-3.731-1.868-4.709
		c-2.614-1.01-5.465-1.745-8.501-2.154c-2.549-0.358-5.001-0.379-7.388-0.255c-2.074-6.778-9.807-13.02-20.144-15.607
		c-0.539-1.226-1.695-2.512-4.601-2.404c-6.946,0.038-9.181-0.978-11.536-4.627c-1.631-1.88-0.551-3.733-3.24-3.889
		c-1.912-0.113-3.921,0.011-5.952,0.233c-2.57-5.001-6.07-8.765-9.914-10.585c-1.491-5.033-4.882-10.337-9.904-14.754
		c-10.23-9.009-23.374-11.131-29.207-4.548c-0.032-0.373-0.204-0.799-0.669-1.317c-1.804-2.025-3.964-3.899-6.384-5.59
		c-11.362-7.933-24.723-8.398-29.821-1.074c-0.907,1.285-1.383,2.786-1.674,4.341c-0.054,0-0.109,0.011-0.162,0.011
		c-2.743-2.468-6.048-4.687-9.915-6.357c-9.128-3.932-18.513-3.92-24.464-0.61c-8.187-5.562-17.271-7.01-22.996-3.753
		c-4.785-3.035-11.546-4.698-18.988-4.121c-11.211,0.854-20.338,6.443-22.855,13.286c-7.528-1.313-14.517-0.2-19.236,2.765
		c-0.843-0.389-1.707-0.734-2.625-0.886c-6.298-1.09-12.67,3.652-16.721,11.396c-0.496,0.453-1.058,1.01-1.512,1.377
		c-10.38-3.089-20.219-1.102-23.664,5.567c-0.714,1.388-1.004,2.895-1.102,4.466c-2.247-0.702-4.505-0.804-6.675-0.178
		c-3.802,1.064-6.61,4.185-8.382,8.386c-1.242-1.047-2.56-2.047-4.018-2.954c-11.439-7.199-24.465-7.059-29.12,0.307
		c-2.462,3.921-1.987,9.09,0.627,14.155c-6.611-0.08-14.603,4.078-20.706,11.553c-0.292,0.389-0.539,0.799-0.832,1.177
		c-0.269-0.253-0.507-0.588-0.832-0.809c-7.484-5.444-20.392-0.411-28.816,11.233c-3.737,5.163-5.908,10.784-6.6,15.925
		c-1.502-0.307-2.798-0.966-4.224-2.175c-2.105-1.345-1.619-3.441-4.243-2.799c-2.722,0.654-5.477,1.701-8.231,3.079
		c-10.26,5.216-16.654,13.939-16.654,21.45c-9.97-1.301-18.73,1.799-21.107,8.41c-0.27,0.723-0.54,1.965-0.01,3.256
		c-5.249,2.776-8.9,9.807-9.559,18.415c-8.316-1.107-17.098,7.831-19.917,20.663c-0.356,1.626-0.594,3.235-0.735,4.822
		c-13.134,0.957-23.503,8.355-23.124,16.909c0.032,0.822,0.27,2.209,1.457,3.209c-9.17,3.423-15.304,10.077-14.397,16.887
		c0.161,1.21,0.712,3.699,4.418,3.857c-0.605,1.134-1.09,2.252-1.523,3.396c-2.927,0.243-5.563,1.177-7.561,3.079
		c-3.942,3.764-4.558,10.056-2.409,16.676c-2.031,0.497-3.888,1.367-5.368,2.777c-5.562,5.297-4.569,15.607,1.631,24.848h-3.737
		v48.637h702.21v-48.637H754.927z M575.63,198.363l0.064,0.022c-0.032,0.021-0.075,0.033-0.107,0.054
		C575.597,198.418,575.619,198.385,575.63,198.363z M577.239,214.813c-0.119,0.011-0.172-0.021-0.303-0.01
		c-0.259,0.032-0.431,0.021-0.701,0.043c-0.422-0.464-0.875-0.854-1.307-1.301l-0.023-0.087
		C575.823,213.901,576.591,214.371,577.239,214.813z M555.798,255.518c0.27,0.211,0.411,0.367,0.669,0.567
		c-0.075,0.076-0.107,0.146-0.184,0.221c-0.043,0.043-0.086,0.065-0.129,0.124c-0.247-0.248-0.474-0.492-0.745-0.724
		c-0.259-0.232-0.54-0.399-0.821-0.632c-0.107-0.411-0.27-0.777-0.388-1.188C554.545,254.427,555.032,254.972,555.798,255.518z
		 M495.928,24.039c0.173,0.735,0.519,1.496,1.253,2.376c0.54,0.653,0.853,1.167,1.274,1.734c-0.723,0.368-1.447,0.735-2.148,1.231
		C495.55,27.702,495.507,26.081,495.928,24.039z M396.515,192.919c0.065-0.356,0.217-0.588,0.335-0.869
		c0.27,0.243,0.519,0.513,0.81,0.745c-0.442,0.212-0.853,0.433-1.263,0.691C396.45,193.282,396.45,193.12,396.515,192.919z"></path>
	<path class="st1" d="M791.499,260.259H8.497c-15.856,1.491,0.108,33.419,17.941,71.834
		C58.139,400.3,81.339,568.878,258.596,627.604l-3.867,54h290.549l-3.855-54C718.669,568.878,741.879,400.3,773.538,332.093
		C791.413,293.678,807.356,261.75,791.499,260.259z"></path>
</g>
</svg>
